:SAMPLES-PER-SECOND 30
:FULLY-SPECIFIED
:DEGREES
763
root  -51.9043 39.3771 7.58475 169.521 -28.098 -179.911
RightUpLeg  -19.4715 -3.8469 -11.8401
RightLeg  34.4948 1.71717 1.02848
RightFoot  -12.2765 -0.0191718 7.87842
RightToes  5.82063e-011 0 -3.6325e-017
Spine  14.6142 0.0963165 -5.86491
Spine1  7.14133 -2.41028 6.41895
HEad  -28.1154 32.9378 -22.077
LeftShoulder1  0.490435 1.89017 -24.1128
LeftArm  -1.13648 -23.4671 -52.8517
LeftForeArm  21.223 -72.917 -38.9443
LeftHand  -0.0276212 5.98551 -0.432334
RightShoulder  -0.171829 -4.10858 20.8872
RightArm  -22.2887 6.99132 12.1771
RightForeArm  21.4548 77.4237 74.478
RightHand  -0.287708 3.13032 -4.12902
LeftUpLeg  1.29001 1.60963 -2.9745
LeftLeg  24.3046 -6.43656 -2.82196
LeftFoot  -14.7157 0.228281 4.73763
LeftToes  1.68253e-010 -3.2327e-011 -2.69673e-012
764
root  -52.1967 39.4556 7.25883 169.264 -33.8114 -179.265
RightUpLeg  -20.2536 -1.95511 -10.0113
RightLeg  33.0868 1.27856 0.648024
RightFoot  -12.2216 -0.0226508 7.8625
RightToes  5.82063e-011 0 -3.6325e-017
Spine  14.6161 0.0480468 -5.7679
Spine1  7.5798 -2.51244 6.75814
HEad  -27.0401 32.0347 -21.4585
LeftShoulder1  0.456932 2.02957 -24.7607
LeftArm  -0.695383 -23.7999 -52.4781
LeftForeArm  20.0724 -72.6142 -38.1709
LeftHand  -0.0332834 6.05216 -0.0509216
RightShoulder  -0.13795 -3.99356 20.2312
RightArm  -22.7796 7.0511 12.5846
RightForeArm  22.5382 77.4294 73.8438
RightHand  -0.127119 2.22697 -2.12469
LeftUpLeg  1.93927 -2.60874 -3.62294
LeftLeg  23.8349 -7.6225 -3.3292
LeftFoot  -14.4055 0.240186 5.73135
LeftToes  1.68253e-010 -3.2327e-011 -2.69673e-012
765
root  -52.6256 39.4635 6.86762 169.142 -38.9241 -179.141
RightUpLeg  -20.8786 0.205918 -9.15501
RightLeg  30.8917 2.09784 1.12718
RightFoot  -12.4788 -0.00450415 8.05564
RightToes  5.82063e-011 0 -3.6325e-017
Spine  14.2984 -0.0176372 -5.71008
Spine1  8.27482 -2.52969 6.60637
HEad  -26.0348 30.8227 -20.6605
LeftShoulder1  0.417017 2.18512 -25.3936
LeftArm  -0.752511 -23.838 -51.7611
LeftForeArm  19.6482 -72.4289 -37.6557
LeftHand  -0.0365024 5.72193 -1.36403
RightShoulder  -0.0675249 -3.73569 19.7911
RightArm  -22.7746 7.31581 12.7694
RightForeArm  22.5616 77.3944 72.8762
RightHand  -0.0381829 2.2288 -0.755911
LeftUpLeg  2.97619 -7.06224 -5.08965
LeftLeg  23.4316 -7.71037 -3.30418
LeftFoot  -14.5913 0.282684 6.86569
LeftToes  1.68253e-010 -3.2327e-011 -2.69673e-012
766
root  -53.0269 39.4414 6.39735 168.55 -43.9462 -178.331
RightUpLeg  -21.1093 3.17418 -8.05138
RightLeg  27.7757 2.17243 1.01439
RightFoot  -12.7532 0.0182061 8.51177
RightToes  5.82063e-011 0 -3.6325e-017
Spine  14.6081 -0.124611 -4.96205
Spine1  8.08682 -2.41915 6.2972
HEad  -24.5823 29.1073 -19.1894
LeftShoulder1  0.461025 2.04183 -25.3029
LeftArm  -1.17386 -22.8519 -52.3714
LeftForeArm  19.8038 -72.5315 -37.9565
LeftHand  -0.0350352 5.98799 -0.441699
RightShoulder  -0.0701896 -3.74567 19.7821
RightArm  -22.524 7.59136 13.0709
RightForeArm  20.149 77.2871 71.8666
RightHand  -0.162912 2.80238 -2.53252
LeftUpLeg  3.85457 -10.0556 -5.34882
LeftLeg  23.7865 -9.25323 -4.10024
LeftFoot  -15.3044 0.346295 7.32472
LeftToes  1.68253e-010 -3.2327e-011 -2.69673e-012
767
root  -53.4915 39.4104 5.86453 168.607 -49.0096 -177.836
RightUpLeg  -21.586 5.08305 -7.63459
RightLeg  24.2541 2.7354 1.13237
RightFoot  -12.8233 0.0208292 8.33494
RightToes  5.82063e-011 0 -3.6325e-017
Spine  14.0948 -0.198531 -4.77715
Spine1  8.09951 -2.42401 6.38756
HEad  -23.4851 27.4549 -18.2026
LeftShoulder1  0.497414 1.93614 -25.5016
LeftArm  -0.897409 -22.8427 -52.0148
LeftForeArm  18.7227 -72.2747 -37.3622
LeftHand  -0.0287095 5.80104 -0.0166515
RightShoulder  -0.0967199 -3.84632 19.8207
RightArm  -22.5815 7.64138 13.1783
RightForeArm  19.7425 77.2197 70.6571
RightHand  -0.190551 3.2425 -2.79762
LeftUpLeg  4.21912 -13.3034 -5.87062
LeftLeg  24.4036 -10.7057 -4.92742
LeftFoot  -15.7789 0.431618 8.67662
LeftToes  1.68253e-010 -3.2327e-011 -2.69673e-012
768
root  -54.027 39.3588 5.29451 168.554 -53.6346 -177.448
RightUpLeg  -21.3944 7.01253 -7.49088
RightLeg  20.0249 3.43608 1.21401
RightFoot  -13.0097 0.0327383 8.3162
RightToes  5.82063e-011 0 -3.6325e-017
Spine  13.2193 -0.297403 -3.73186
Spine1  9.14666 -2.10061 5.24219
HEad  -23.0054 24.9273 -16.6376
LeftShoulder1  0.57786 1.64675 -24.9361
LeftArm  -0.864177 -23.3169 -52.0059
LeftForeArm  18.18 -72.0269 -36.7148
LeftHand  -0.0250175 5.84725 0.763982
RightShoulder  -0.210005 -4.24202 20.8092
RightArm  -22.7369 8.08757 12.8324
RightForeArm  18.9994 77.1668 70.0137
RightHand  -0.177609 2.43051 -2.82327
LeftUpLeg  5.01903 -16.0486 -6.4231
LeftLeg  24.8552 -11.9296 -5.63587
LeftFoot  -16.3739 0.515557 9.46291
LeftToes  1.68253e-010 -3.2327e-011 -2.69673e-012
769
root  -54.6342 39.2718 4.66397 168.839 -57.8802 -177.248
RightUpLeg  -21.067 7.93767 -7.18942
RightLeg  15.9405 5.40811 1.19706
RightFoot  -13.0848 0.0392323 8.36516
RightToes  5.82063e-011 0 -3.6325e-017
Spine  11.795 -0.217228 -1.9217
Spine1  10.5457 -1.29036 3.24255
HEad  -22.6239 21.6935 -15.643
LeftShoulder1  0.72777 1.13934 -24.6898
LeftArm  -0.602651 -24.1607 -52.0843
LeftForeArm  17.5291 -71.6987 -35.8732
LeftHand  -0.0285829 5.85049 -0.33668
RightShoulder  -0.347347 -4.71079 21.5573
RightArm  -23.2408 7.75532 12.4298
RightForeArm  19.3418 77.2242 70.9733
RightHand  -0.277478 2.87179 -4.14742
LeftUpLeg  5.6449 -17.6888 -6.69424
LeftLeg  25.4539 -13.43 -6.54769
LeftFoot  -17.0693 0.640154 10.6968
LeftToes  1.68253e-010 -3.2327e-011 -2.69673e-012
770
root  -55.309 39.1205 3.98518 168.882 -62.0033 -177.171
RightUpLeg  -19.7068 5.2064 -5.67721
RightLeg  12.2437 10.3913 0.516709
RightFoot  -13.467 0.0876089 9.65476
RightToes  5.82063e-011 0 -3.6325e-017
Spine  12.9537 -0.200584 -4.37528
Spine1  8.31082 -2.34444 6.73041
HEad  -21.7241 21.6123 -16.276
LeftShoulder1  0.352111 2.42587 -26.2996
LeftArm  -0.630037 -23.3181 -50.6905
LeftForeArm  17.7883 -71.9442 -36.5448
LeftHand  -0.0273398 5.75234 -0.633512
RightShoulder  -0.0964664 -3.85241 19.6135
RightArm  -21.6277 7.8574 13.98
RightForeArm  18.1805 77.1296 69.7111
RightHand  -0.28796 3.93516 -3.8406
LeftUpLeg  6.44633 -18.4794 -6.82148
LeftLeg  26.6612 -14.8404 -7.6361
LeftFoot  -17.9526 0.820017 12.2618
LeftToes  1.68253e-010 -3.2327e-011 -2.69673e-012
771
root  -56.0911 38.9139 3.31909 168.997 -66.1667 -177.272
RightUpLeg  -18.2227 1.67424 -4.49943
RightLeg  10.3608 14.1766 0.0739214
RightFoot  -13.639 0.111551 10.2497
RightToes  5.82063e-011 0 -3.6325e-017
Spine  12.9192 -0.422029 -4.48166
Spine1  7.9598 -2.70203 7.3298
HEad  -20.6954 19.9266 -15.5845
LeftShoulder1  0.30753 2.55871 -26.3435
LeftArm  -1.86019 -21.6479 -51.2785
LeftForeArm  19.2158 -72.2283 -37.1113
LeftHand  -0.0280934 5.75871 -1.21698
RightShoulder  -0.0451919 -3.65272 19.4792
RightArm  -21.1267 7.81523 14.215
RightForeArm  19.0992 77.2138 70.9795
RightHand  -0.364105 3.85528 -4.83539
LeftUpLeg  7.41236 -18.9978 -7.0973
LeftLeg  27.9737 -14.9477 -8.12091
LeftFoot  -19.3639 1.01831 12.8224
LeftToes  1.68253e-010 -3.2327e-011 -2.69673e-012
772
root  -56.9234 38.6894 2.62008 170.109 -69.6776 -178.092
RightUpLeg  -17.3381 0.85847 -4.41415
RightLeg  10.5258 14.325 0.225335
RightFoot  -12.0987 0.00931194 10.2694
RightToes  5.82063e-011 0 -3.6325e-017
Spine  11.8898 -0.435546 -3.98346
Spine1  8.67367 -2.60256 7.06122
HEad  -20.5645 18.1111 -15.4506
LeftShoulder1  0.32366 2.52258 -26.8167
LeftArm  -1.8531 -21.6512 -50.7578
LeftForeArm  19.4908 -72.1722 -36.8797
LeftHand  -0.028724 5.7419 -1.03869
RightShoulder  -0.0444275 -3.65044 19.3547
RightArm  -20.9735 7.49243 13.9961
RightForeArm  23.502 77.5205 75.8649
RightHand  -0.363775 3.67865 -4.90919
LeftUpLeg  7.98357 -18.1229 -7.05015
LeftLeg  29.1925 -13.8668 -7.91981
LeftFoot  -20.9448 1.14655 12.0958
LeftToes  1.68253e-010 -3.2327e-011 -2.69673e-012
773
root  -57.7275 38.5531 1.93465 169.423 -72.662 -177.403
RightUpLeg  -16.8263 1.72524 -4.28728
RightLeg  12.1399 13.7566 0.514309
RightFoot  -3.97623 -0.733928 10.002
RightToes  5.82063e-011 0 -3.6325e-017
Spine  11.7073 -0.647395 -2.32382
Spine1  9.21695 -2.47789 6.422
HEad  -20.4649 16.4393 -14.9838
LeftShoulder1  0.355684 2.41323 -26.426
LeftArm  -2.54791 -21.1728 -50.4409
LeftForeArm  19.4601 -72.2266 -37.0525
LeftHand  -0.033713 5.97669 -0.532615
RightShoulder  -0.0268012 -3.58136 19.5816
RightArm  -20.9037 8.13213 14.4273
RightForeArm  25.5365 77.603 77.1649
RightHand  -0.325056 3.59234 -4.45355
LeftUpLeg  8.94738 -16.2765 -5.68345
LeftLeg  30.1716 -14.288 -8.48477
LeftFoot  -21.8524 1.19119 11.4724
LeftToes  1.68253e-010 -3.2327e-011 -2.69673e-012
